<svg width="60" height="60" viewBox="0 0 60 60" fill="none" xmlns="http://www.w3.org/2000/svg">
<path d="M30.0005 32.25C31.6573 32.25 33.0005 30.9069 33.0005 29.25C33.0005 27.5931 31.6573 26.25 30.0005 26.25C28.3436 26.25 27.0005 27.5931 27.0005 29.25C27.0005 30.9069 28.3436 32.25 30.0005 32.25Z" fill="#F33F5E"/>
<path d="M24.8248 9.07545C23.4248 8.47545 21.9749 8.22545 20.7249 8.75045C16.7249 10.4505 17.2499 19.0755 17.2749 19.5505C17.3249 20.1005 17.3748 20.5505 17.4248 20.8505C17.8248 24.4255 18.7999 29.3755 21.2749 34.6505C23.7749 40.0005 26.8998 43.7255 28.3498 45.4505C28.7748 45.9505 28.9748 46.1755 29.0248 46.2505C30.9498 48.3255 36.0498 52.8005 39.4498 51.2505C43.1998 49.5505 42.7748 41.5755 42.7248 40.7755C42.6998 40.3755 42.6748 39.9755 42.5498 39.2255C42.2998 37.5005 41.9249 34.9005 41.0249 31.7505" stroke="url(#paint0_linear_31_303)" stroke-width="3" stroke-linecap="round" stroke-linejoin="round"/>
<path d="M48.8252 36.8747C51.0002 35.7247 52.9502 34.1497 53.1252 32.1497C53.4752 28.0497 46.3001 24.5247 45.6001 24.1747C45.2501 23.9997 44.8752 23.8497 44.1502 23.5747C41.6752 22.6247 37.3002 20.9247 31.2752 20.2997C25.5752 19.6997 20.7251 20.2997 17.2501 20.9997C16.8501 21.0747 16.2751 21.1747 15.6001 21.3497C14.7501 21.5747 7.32518 23.6747 6.90018 27.7247C6.70018 29.4747 7.87513 31.1497 9.35013 32.5247" stroke="url(#paint1_linear_31_303)" stroke-width="3" stroke-linecap="round" stroke-linejoin="round"/>
<path d="M44.0754 16.2507C44.0004 13.6007 43.4004 10.8507 41.5004 9.80071C37.9254 7.80071 31.7254 12.8757 31.1254 13.3757C30.8254 13.6257 30.5253 13.9007 29.9753 14.4507C28.0753 16.3007 24.7503 19.6007 21.7003 24.8257C18.8003 29.7757 17.3504 34.4507 16.5754 37.9007C16.4754 38.3007 16.3253 38.8757 16.2253 39.5507C16.0753 40.4257 14.9504 48.0257 18.4504 50.1007C19.5504 50.7507 20.9004 50.7257 22.2754 50.3757" stroke="url(#paint2_linear_31_303)" stroke-width="3" stroke-linecap="round" stroke-linejoin="round"/>
<defs>
<linearGradient id="paint0_linear_31_303" x1="17.2393" y1="8.46436" x2="48.3928" y2="13.0123" gradientUnits="userSpaceOnUse">
<stop stop-color="#F33F5E"/>
<stop offset="1" stop-color="#FA8550"/>
</linearGradient>
<linearGradient id="paint1_linear_31_303" x1="6.87793" y1="20.0536" x2="46.3824" y2="46.8379" gradientUnits="userSpaceOnUse">
<stop stop-color="#F33F5E"/>
<stop offset="1" stop-color="#FA8550"/>
</linearGradient>
<linearGradient id="paint2_linear_31_303" x1="15.9351" y1="9.33618" x2="50.0496" y2="15.0692" gradientUnits="userSpaceOnUse">
<stop stop-color="#F33F5E"/>
<stop offset="1" stop-color="#FA8550"/>
</linearGradient>
</defs>
</svg>
