<svg width="20" height="20" viewBox="0 0 20 20" fill="none" xmlns="http://www.w3.org/2000/svg">
<path d="M14.999 0.00416129L12.4055 0C9.49173 0 7.60874 1.93188 7.60874 4.92198V7.19134H5.00107C4.77573 7.19134 4.59326 7.37402 4.59326 7.59935V10.8874C4.59326 11.1127 4.77594 11.2952 5.00107 11.2952H7.60874V19.592C7.60874 19.8173 7.79121 19.9998 8.01655 19.9998H11.4188C11.6442 19.9998 11.8266 19.8171 11.8266 19.592V11.2952H14.8756C15.1009 11.2952 15.2834 11.1127 15.2834 10.8874L15.2847 7.59935C15.2847 7.49116 15.2416 7.38754 15.1652 7.31097C15.0889 7.23441 14.9848 7.19134 14.8766 7.19134H11.8266V5.26757C11.8266 4.34293 12.047 3.87354 13.2515 3.87354L14.9986 3.87291C15.2237 3.87291 15.4062 3.69023 15.4062 3.46511V0.411968C15.4062 0.18705 15.2239 0.00457742 14.999 0.00416129Z" fill="#676C7A"/>
</svg>
