<svg width="20" height="20" viewBox="0 0 20 20" fill="none" xmlns="http://www.w3.org/2000/svg">
<path d="M5.0898 5.58984H1.22266V17.2029H5.0898V5.58984Z" fill="#676C7A"/>
<path d="M17.7809 6.65149C16.9686 5.76475 15.8942 5.32129 14.5584 5.32129C14.0662 5.32129 13.6188 5.38183 13.2164 5.503C12.8141 5.62408 12.4743 5.79397 12.1969 6.01274C11.9196 6.23152 11.6988 6.43461 11.5349 6.62202C11.379 6.80004 11.2265 7.0074 11.0778 7.24198V5.59063H7.22217L7.23399 6.1532C7.24191 6.52832 7.24581 7.68449 7.24581 9.62188C7.24581 11.5594 7.23801 14.0867 7.22233 17.2039H11.0778V10.7233C11.0778 10.325 11.1205 10.0087 11.2066 9.77408C11.3708 9.37544 11.6186 9.0417 11.9508 8.77228C12.283 8.50253 12.695 8.36777 13.1873 8.36777C13.859 8.36777 14.3533 8.60017 14.6698 9.06501C14.9861 9.52981 15.1443 10.1724 15.1443 10.9928V17.2035H18.9997V10.5477C18.9995 8.83664 18.5935 7.53795 17.7809 6.65149Z" fill="#676C7A"/>
<path d="M3.17964 0C2.53129 0 2.00594 0.189589 1.60349 0.568399C1.20108 0.94729 1 1.42564 1 2.00389C1 2.57405 1.19529 3.05075 1.58593 3.43346C1.97643 3.81621 2.49213 4.00769 3.13273 4.00769H3.15616C3.81248 4.00769 4.34185 3.81637 4.74413 3.43346C5.14642 3.05075 5.34365 2.57421 5.33589 2.00389C5.32809 1.42568 5.12873 0.94729 4.73822 0.568399C4.34776 0.189425 3.82804 0 3.17964 0Z" fill="#676C7A"/>
</svg>
