<svg width="226" height="49" viewBox="0 0 226 49" fill="none" xmlns="http://www.w3.org/2000/svg">
<path d="M45.6128 38.71L51.0203 9.62213H55.1197L62.8386 28.1128L70.9065 9.62213H75.0058L79.8902 38.71H74.1336L71.517 20.7863L63.7108 38.71H61.792L54.3347 20.7863L51.3692 38.71H45.6128ZM98.7351 22.269V19.8269H104.055V38.71H98.7351V36.2678C97.3101 38.303 95.3771 39.3205 92.9349 39.3205C90.0856 39.3205 87.7596 38.3466 85.9573 36.3987C84.1835 34.4508 83.2971 32.0667 83.2971 29.2466C83.2971 26.3974 84.1693 24.0134 85.9137 22.0946C87.6581 20.1758 89.9111 19.2163 92.6733 19.2163C95.406 19.2163 97.4268 20.2339 98.7351 22.269ZM97.7757 25.4526C96.7868 24.435 95.5368 23.9262 94.0252 23.9262C92.513 23.9262 91.2631 24.435 90.2747 25.4526C89.2859 26.4701 88.792 27.7348 88.792 29.2466C88.792 30.7584 89.2859 32.0377 90.2747 33.0843C91.2631 34.1019 92.513 34.6107 94.0252 34.6107C95.5368 34.6107 96.7868 34.1019 97.7757 33.0843C98.764 32.0377 99.2584 30.7584 99.2584 29.2466C99.2584 27.7348 98.764 26.4701 97.7757 25.4526ZM114.448 36.2678V48.6967H109.127V19.8269H114.448V22.269C115.873 20.2339 117.922 19.2163 120.597 19.2163C123.214 19.2163 125.365 20.0595 127.051 21.7457C128.941 23.6355 129.886 26.1358 129.886 29.2466C129.886 32.4447 128.898 34.9886 126.92 36.8784C125.176 38.5065 123.039 39.3205 120.51 39.3205C117.98 39.3205 115.96 38.303 114.448 36.2678ZM119.158 23.9262C117.792 23.9262 116.643 24.3478 115.713 25.1909C114.521 26.2085 113.925 27.5604 113.925 29.2466C113.925 30.962 114.506 32.3284 115.669 33.346C116.628 34.1891 117.792 34.6107 119.158 34.6107C120.583 34.6107 121.774 34.16 122.734 33.2587C123.839 32.2412 124.391 30.9038 124.391 29.2466C124.391 27.6185 123.853 26.2957 122.777 25.2781C121.789 24.3769 120.583 23.9262 119.158 23.9262Z" fill="url(#paint0_linear_169_814)"/>
<path d="M152.053 12.3695L149.088 16.2508C147.838 14.5936 146.253 13.7651 144.334 13.7651C142.939 13.7651 141.922 14.1139 141.282 14.8117C140.642 15.4804 140.322 16.2654 140.322 17.1666C140.322 17.9516 140.628 18.6058 141.238 19.1291C141.704 19.5652 142.866 20.1176 144.727 20.7863C147.605 21.7747 149.568 22.7487 150.614 23.7081C152.271 25.1909 153.1 27.226 153.1 29.8135C153.1 32.6627 152.155 34.9741 150.265 36.7475C148.405 38.4919 145.977 39.3641 142.982 39.3641C138.796 39.3641 135.453 37.5325 132.952 33.8693L136.659 30.3369C137.299 31.6452 138.185 32.6191 139.319 33.2587C140.453 33.8983 141.602 34.2181 142.764 34.2181C144.073 34.2181 145.149 33.8547 145.992 33.1279C146.835 32.372 147.256 31.3981 147.256 30.206C147.256 29.1884 146.878 28.3162 146.122 27.5894C145.425 26.9498 143.928 26.2375 141.631 25.4525C139.479 24.7257 137.866 23.8826 136.79 22.9232C135.249 21.5858 134.479 19.7832 134.479 17.5155C134.479 15.1606 135.278 13.1545 136.877 11.4973C138.476 9.8111 140.788 8.96796 143.811 8.96796C147.096 8.96796 149.844 10.1018 152.053 12.3695ZM166.278 24.3623H162.615V38.71H157.294V24.3623H155.201V19.8268H157.294V13.3726H162.615V19.8268H166.278V24.3623ZM183.527 22.269V19.8268H188.847V38.71H183.527V36.2678C182.103 38.3029 180.169 39.3205 177.727 39.3205C174.878 39.3205 172.552 38.3465 170.749 36.3986C168.976 34.4507 168.089 32.0667 168.089 29.2466C168.089 26.3974 168.961 24.0134 170.706 22.0946C172.45 20.1757 174.704 19.2163 177.465 19.2163C180.198 19.2163 182.219 20.2339 183.527 22.269ZM182.568 25.4525C181.579 24.435 180.329 23.9262 178.817 23.9262C177.305 23.9262 176.055 24.435 175.067 25.4525C174.078 26.4701 173.584 27.7348 173.584 29.2466C173.584 30.7584 174.078 32.0376 175.067 33.0843C176.055 34.1019 177.305 34.6106 178.817 34.6106C180.329 34.6106 181.579 34.1019 182.568 33.0843C183.556 32.0376 184.05 30.7584 184.05 29.2466C184.05 27.7348 183.556 26.4701 182.568 25.4525ZM193.92 38.71V19.8268H199.24V22.6615C199.88 21.4404 200.665 20.5682 201.595 20.0449C202.467 19.4925 203.514 19.2163 204.735 19.2163C205.433 19.2163 206.189 19.3617 207.003 19.6524L206.305 24.6239C205.637 24.1588 204.808 23.9262 203.819 23.9262C202.279 23.9262 201.101 24.435 200.287 25.4525C199.589 26.3247 199.24 27.7203 199.24 29.6391V38.71H193.92ZM222.075 21.2224L219.458 24.3187C218.557 23.4755 217.525 23.054 216.362 23.054C215.722 23.054 215.214 23.1994 214.836 23.4901C214.487 23.7517 214.312 24.1152 214.312 24.5803C214.312 25.3363 214.879 25.9032 216.013 26.2811L217.278 26.6736C219.749 27.4586 221.348 28.3599 222.075 29.3774C222.715 30.2496 223.034 31.2963 223.034 32.5174C223.034 34.4362 222.336 36.0352 220.941 37.3145C219.488 38.6518 217.598 39.3205 215.272 39.3205C212.336 39.3205 209.893 38.2739 207.945 36.1806L210.736 32.9535C211.987 34.4071 213.382 35.134 214.923 35.134C215.679 35.134 216.304 34.9595 216.798 34.6106C217.292 34.2327 217.539 33.7239 217.539 33.0843C217.539 32.2121 216.987 31.5725 215.882 31.1654L214.661 30.7293C212.772 30.0606 211.42 29.3048 210.605 28.4616C209.646 27.444 209.166 26.2375 209.166 24.842C209.166 23.0976 209.82 21.673 211.129 20.5682C212.263 19.667 213.906 19.2163 216.057 19.2163C218.324 19.2163 220.33 19.885 222.075 21.2224Z" fill="#111A45"/>
<path d="M20.3348 1.96002C11.0922 1.96002 3.57275 9.05606 3.57275 17.7782C3.57275 28.6026 18.5731 44.4936 19.2118 45.1647C19.8117 45.7952 20.859 45.7942 21.4578 45.1647C22.0965 44.4936 37.0969 28.6026 37.0969 17.7782C37.0967 9.05606 29.5775 1.96002 20.3348 1.96002ZM20.3348 25.7367C15.6846 25.7367 11.9015 22.1665 11.9015 17.7782C11.9015 13.3898 15.6847 9.81972 20.3348 9.81972C24.9849 9.81972 28.7681 13.3899 28.7681 17.7783C28.7681 22.1666 24.9849 25.7367 20.3348 25.7367Z" fill="url(#paint1_linear_169_814)"/>
<path fill-rule="evenodd" clip-rule="evenodd" d="M32.0745 31.4209C29.3188 32.0728 24.0914 33.2385 23.4956 33.0896C22.8827 32.9364 19.6004 31.4294 18.036 30.695L12.8637 27.5342L7.69138 26.289L5.25416 25.0045C4.22118 22.4983 3.57275 20.0287 3.57275 17.7782C3.57275 9.05606 11.0922 1.96002 20.3348 1.96002C29.5775 1.96002 37.0967 9.05606 37.0969 17.7782C37.0969 21.9595 34.8586 26.8968 32.0745 31.4209ZM11.9015 17.7782C11.9015 22.1665 15.6846 25.7367 20.3348 25.7367C24.9849 25.7367 28.7681 22.1666 28.7681 17.7783C28.7681 13.3899 24.9849 9.81972 20.3348 9.81972C15.6847 9.81972 11.9015 13.3898 11.9015 17.7782Z" fill="url(#paint2_linear_169_814)"/>
<path fill-rule="evenodd" clip-rule="evenodd" d="M32.8868 30.0608C23.5976 34.2185 19.3935 30.5848 15.3551 27.0944C12.3231 24.4738 9.38458 21.934 4.45752 22.8333C5.00927 24.5642 5.78759 26.3391 6.70164 28.0954C10.2371 27.6647 12.9968 29.3459 15.8285 31.0711C19.9871 33.6047 24.3011 36.2329 31.456 32.4056C31.9484 31.6368 32.4282 30.8532 32.8868 30.0608Z" fill="url(#paint3_linear_169_814)"/>
<defs>
<linearGradient id="paint0_linear_169_814" x1="43.7812" y1="1.96" x2="154.004" y2="114.626" gradientUnits="userSpaceOnUse">
<stop stop-color="#F33F5E"/>
<stop offset="1" stop-color="#FA8550"/>
</linearGradient>
<linearGradient id="paint1_linear_169_814" x1="20.3348" y1="1.96002" x2="20.3348" y2="45.6372" gradientUnits="userSpaceOnUse">
<stop stop-color="#028EB1"/>
<stop offset="1" stop-color="#48CFE5"/>
</linearGradient>
<linearGradient id="paint2_linear_169_814" x1="11.0248" y1="1.96002" x2="27.6848" y2="32.095" gradientUnits="userSpaceOnUse">
<stop stop-color="#F33F5E"/>
<stop offset="1" stop-color="#FA8550"/>
</linearGradient>
<linearGradient id="paint3_linear_169_814" x1="4.53061" y1="25.1395" x2="31.1584" y2="32.2275" gradientUnits="userSpaceOnUse">
<stop stop-color="#55DAF4"/>
<stop offset="1" stop-color="#36BED7"/>
</linearGradient>
</defs>
</svg>
