<svg width="66" height="77" viewBox="0 0 66 77" fill="none" xmlns="http://www.w3.org/2000/svg">
<path d="M32.2234 3.08008C17.5771 3.08008 5.66162 14.231 5.66162 27.9372C5.66162 44.947 29.4318 69.9186 30.4438 70.9732C31.3944 71.964 33.0541 71.9623 34.0029 70.9732C35.015 69.9186 58.7851 44.947 58.7851 27.9372C58.7847 14.231 46.8696 3.08008 32.2234 3.08008ZM32.2234 40.4435C24.8545 40.4435 18.8596 34.8332 18.8596 27.9372C18.8596 21.0412 24.8547 15.431 32.2234 15.431C39.5921 15.431 45.587 21.0413 45.587 27.9373C45.587 34.8333 39.5921 40.4435 32.2234 40.4435Z" fill="url(#paint0_linear_169_856)"/>
<path fill-rule="evenodd" clip-rule="evenodd" d="M50.8264 49.3757C46.4597 50.4001 38.1761 52.232 37.2321 51.998C36.2607 51.7572 31.0596 49.389 28.5806 48.235L20.3843 43.268L12.1881 41.3113L8.32604 39.2928C6.68914 35.3545 5.66162 31.4738 5.66162 27.9372C5.66162 14.231 17.5771 3.08008 32.2234 3.08008C46.8696 3.08008 58.7847 14.231 58.7851 27.9372C58.7851 34.5078 55.2382 42.2665 50.8264 49.3757ZM18.8596 27.9372C18.8596 34.8332 24.8545 40.4435 32.2234 40.4435C39.5921 40.4435 45.587 34.8333 45.587 27.9373C45.587 21.0413 39.5921 15.431 32.2234 15.431C24.8547 15.431 18.8596 21.0412 18.8596 27.9372Z" fill="url(#paint1_linear_169_856)"/>
<path fill-rule="evenodd" clip-rule="evenodd" d="M52.1135 47.2386C37.3935 53.7722 30.7315 48.062 24.3322 42.5771C19.5276 38.459 14.8711 34.4679 7.06348 35.8811C7.93781 38.6011 9.17115 41.3903 10.6196 44.1501C16.222 43.4733 20.5951 46.1153 25.0823 48.8262C31.6721 52.8076 38.5082 56.9376 49.8462 50.9232C50.6264 49.7152 51.3868 48.4839 52.1135 47.2386Z" fill="url(#paint2_linear_169_856)"/>
<defs>
<linearGradient id="paint0_linear_169_856" x1="32.2234" y1="3.08008" x2="32.2234" y2="71.7156" gradientUnits="userSpaceOnUse">
<stop stop-color="#028EB1"/>
<stop offset="1" stop-color="#48CFE5"/>
</linearGradient>
<linearGradient id="paint1_linear_169_856" x1="17.4704" y1="3.08008" x2="43.5335" y2="50.6198" gradientUnits="userSpaceOnUse">
<stop stop-color="#F33F5E"/>
<stop offset="1" stop-color="#FA8550"/>
</linearGradient>
<linearGradient id="paint2_linear_169_856" x1="7.17929" y1="39.5052" x2="49.3275" y2="50.8189" gradientUnits="userSpaceOnUse">
<stop stop-color="#55DAF4"/>
<stop offset="1" stop-color="#36BED7"/>
</linearGradient>
</defs>
</svg>
