<svg width="60" height="60" viewBox="0 0 60 60" fill="none" xmlns="http://www.w3.org/2000/svg">
<path d="M35.9748 23.9503L23.7998 36.1253" stroke="#F33F5E" stroke-width="3" stroke-linecap="round" stroke-linejoin="round"/>
<path d="M22.2989 19.1504C20.5489 19.1504 19.1489 20.5754 19.1489 22.3004C19.1489 24.0504 20.5739 25.4504 22.2989 25.4504C24.0239 25.4504 25.4489 24.0254 25.4489 22.3004C25.4739 20.5754 24.0489 19.1504 22.2989 19.1504Z" fill="#F33F5E"/>
<path d="M37.6988 34.5262C35.9488 34.5262 34.5488 35.9512 34.5488 37.6762C34.5488 39.4262 35.9738 40.8262 37.6988 40.8262C39.4238 40.8262 40.8488 39.4012 40.8488 37.6762C40.8488 35.9512 39.4488 34.5262 37.6988 34.5262Z" fill="#F33F5E"/>
<path d="M51.1 39.4999H51.075C52.375 36.5999 53.125 33.3749 53.125 29.9999C53.125 17.2249 42.775 6.87488 30 6.87488C17.225 6.87488 6.875 17.2249 6.875 29.9999C6.875 42.7749 17.225 53.1249 30 53.1249C33.775 53.1249 37.35 52.1999 40.5 50.5999L53 52.4499L51.1 39.4999Z" stroke="url(#paint0_linear_31_334)" stroke-width="3" stroke-linecap="round" stroke-linejoin="round"/>
<defs>
<linearGradient id="paint0_linear_31_334" x1="6.875" y1="6.87488" x2="61.224" y2="20.2741" gradientUnits="userSpaceOnUse">
<stop stop-color="#F33F5E"/>
<stop offset="1" stop-color="#FA8550"/>
</linearGradient>
</defs>
</svg>
