<svg width="60" height="60" viewBox="0 0 60 60" fill="none" xmlns="http://www.w3.org/2000/svg">
<path d="M41.3738 22.3996C40.3238 22.3996 39.5988 22.3996 39.5988 22.3996C41.0488 17.9496 42.6488 10.7745 37.6738 7.92446C36.3238 7.14946 32.2738 5.92445 31.6988 8.22445C30.8988 11.3745 30.1238 14.5245 28.2488 17.2995C26.6988 19.5745 24.3488 22.0996 21.4238 22.3996C21.4238 22.5246 21.4238 22.6745 21.4238 22.6745V45.7995C21.4238 45.7995 21.4238 46.4245 21.4238 47.0495C21.7238 47.1495 22.0238 47.2496 22.0238 47.2496L27.2738 48.9746C28.9988 49.5496 30.7988 49.8495 32.6238 49.8495H45.4488C47.9988 49.8495 50.0738 47.7995 50.0738 45.2745C50.0738 44.6745 49.9488 44.1245 49.7238 43.5995C51.6988 43.0495 53.1238 41.2745 53.1238 39.1745C53.1238 37.9995 52.6988 36.9245 51.9488 36.0995C52.6738 35.2995 53.1238 34.2245 53.1238 33.0745C53.1238 31.8995 52.6988 30.8245 51.9488 29.9995C52.6738 29.1995 53.1238 28.1245 53.1238 26.9745C53.1238 24.4495 51.0488 22.3996 48.5238 22.3996C48.5238 22.3996 43.9738 22.3996 41.3738 22.3996Z" stroke="url(#paint0_linear_32_435)" stroke-width="3" stroke-linecap="round" stroke-linejoin="round"/>
<path d="M6.87402 18.4495H15.599C18.799 18.4495 21.399 21.0495 21.399 24.2495V47.3495C21.399 50.5495 18.799 53.1495 15.599 53.1495H6.87402V18.4495Z" stroke="url(#paint1_linear_32_435)" stroke-width="3" stroke-linecap="round" stroke-linejoin="round"/>
<path d="M14.1492 46.8491C15.2262 46.8491 16.0992 45.9761 16.0992 44.8992C16.0992 43.8222 15.2262 42.9491 14.1492 42.9491C13.0723 42.9491 12.1992 43.8222 12.1992 44.8992C12.1992 45.9761 13.0723 46.8491 14.1492 46.8491Z" fill="#F33F5E"/>
<defs>
<linearGradient id="paint0_linear_32_435" x1="21.4238" y1="6.89673" x2="59.6729" y2="13.8562" gradientUnits="userSpaceOnUse">
<stop stop-color="#F33F5E"/>
<stop offset="1" stop-color="#FA8550"/>
</linearGradient>
<linearGradient id="paint1_linear_32_435" x1="6.87402" y1="18.4495" x2="24.7892" y2="20.2983" gradientUnits="userSpaceOnUse">
<stop stop-color="#F33F5E"/>
<stop offset="1" stop-color="#FA8550"/>
</linearGradient>
</defs>
</svg>
