<svg width="20" height="20" viewBox="0 0 20 20" fill="none" xmlns="http://www.w3.org/2000/svg">
<g clip-path="url(#clip0_9_1006)">
<path d="M19.4436 13.2898C19.8037 12.259 20.0002 11.1521 20.0002 9.99995C20.0002 8.84782 19.8037 7.74088 19.4436 6.71012C19.4348 6.67915 19.4244 6.64896 19.4118 6.6199C18.0229 2.76432 14.3286 0 10.0003 0C5.6721 0 1.97773 2.76432 0.588884 6.6199C0.576269 6.64905 0.565757 6.67915 0.557061 6.71012C0.196971 7.74088 0.000488281 8.84782 0.000488281 9.99995C0.000488281 11.1521 0.196971 12.259 0.557061 13.2898C0.565853 13.3208 0.576269 13.351 0.588884 13.38C1.97783 17.2357 5.6721 19.9999 10.0003 19.9999C14.3286 19.9999 18.0229 17.2356 19.4118 13.38C19.4244 13.351 19.4348 13.3208 19.4436 13.2898ZM10.0003 18.5665C9.61952 18.5665 9.00551 17.8773 8.49232 16.3376C8.24462 15.5945 8.04632 14.7404 7.90183 13.8112H12.0989C11.9544 14.7404 11.7561 15.5944 11.5085 16.3376C10.9952 17.8773 10.3812 18.5665 10.0003 18.5665ZM7.7279 12.3777C7.659 11.6134 7.62259 10.816 7.62259 9.99995C7.62259 9.18392 7.659 8.38652 7.7279 7.62219H12.2727C12.3416 8.38652 12.378 9.18392 12.378 9.99995C12.378 10.816 12.3416 11.6134 12.2727 12.3777H7.7279ZM1.43387 10C1.43387 9.17532 1.55132 8.37754 1.76988 7.62229H6.29012C6.22313 8.40239 6.18911 9.20189 6.18911 10C6.18911 10.7982 6.22303 11.5977 6.29012 12.3778H1.76988C1.55132 11.6225 1.43387 10.8248 1.43387 10ZM10.0003 1.43348C10.3812 1.43348 10.9953 2.1227 11.5085 3.66244C11.7561 4.40546 11.9545 5.25963 12.0989 6.18871H7.90173C8.04623 5.25953 8.24452 4.40546 8.49223 3.66244C9.00551 2.1227 9.61952 1.43348 10.0003 1.43348ZM13.7105 7.62229H18.2307C18.4493 8.37754 18.5667 9.17532 18.5667 10C18.5667 10.8248 18.4493 11.6226 18.2307 12.3778H13.7105C13.7775 11.5977 13.8115 10.7982 13.8115 10C13.8115 9.20189 13.7775 8.40239 13.7105 7.62229ZM17.6706 6.18881H13.546C13.291 4.43069 12.8536 2.85339 12.24 1.73126C14.6191 2.37623 16.5901 4.02292 17.6706 6.18881ZM7.76058 1.73117C7.14696 2.85329 6.70955 4.4306 6.45459 6.18881H2.32999C3.41054 4.02292 5.38148 2.37623 7.76058 1.73117ZM2.32999 13.8112H6.45459C6.70955 15.5693 7.14696 17.1466 7.76058 18.2688C5.38148 17.6238 3.41054 15.9772 2.32999 13.8112ZM12.24 18.2688C12.8536 17.1467 13.291 15.5694 13.546 13.8112H17.6706C16.5901 15.9772 14.6191 17.6238 12.24 18.2688Z" fill="#111A45"/>
</g>
<defs>
<clipPath id="clip0_9_1006">
<rect width="20" height="20" fill="white"/>
</clipPath>
</defs>
</svg>
